<mxfile host="Electron" modified="2023-11-21T13:50:13.250Z" agent="Mozilla/5.0 (Windows NT 10.0; Win64; x64) AppleWebKit/537.36 (KHTML, like Gecko) draw.io/22.0.3 Chrome/114.0.5735.289 Electron/25.8.4 Safari/537.36" etag="N5nMF9jyFRx4fCxuILkH" version="22.0.3" type="device" pages="4">
  <diagram id="XF4L9PVoTovN2mMjMkve" name="user">
    <mxGraphModel dx="1877" dy="2967" grid="1" gridSize="10" guides="1" tooltips="1" connect="1" arrows="1" fold="1" page="1" pageScale="1" pageWidth="827" pageHeight="1169" math="0" shadow="0">
      <root>
        <mxCell id="0" />
        <mxCell id="1" parent="0" />
        <mxCell id="yuhelbArQlDqQVYjPBpP-1" value="" style="rounded=0;whiteSpace=wrap;html=1;fillColor=none;strokeColor=#B3B3B3;" parent="1" vertex="1">
          <mxGeometry x="-600" y="-2280" width="640" height="1110" as="geometry" />
        </mxCell>
        <mxCell id="yuhelbArQlDqQVYjPBpP-2" value="" style="endArrow=none;html=1;strokeColor=#000000;fontFamily=Comic Sans MS;fontSize=14;fontColor=#808080;exitX=0;exitY=0.5;exitDx=0;exitDy=0;" parent="1" source="qT_abWVe22HhI2fVeqkP-1" edge="1">
          <mxGeometry width="50" height="50" relative="1" as="geometry">
            <mxPoint x="-560" y="-1990" as="sourcePoint" />
            <mxPoint x="-720" y="-1960" as="targetPoint" />
          </mxGeometry>
        </mxCell>
        <mxCell id="yuhelbArQlDqQVYjPBpP-3" value="Пользователь" style="shape=umlActor;verticalLabelPosition=bottom;labelBackgroundColor=#ffffff;verticalAlign=top;html=1;outlineConnect=0;strokeColor=#000000;fontFamily=Comic Sans MS;fontSize=14;fontColor=#000000;" parent="1" vertex="1">
          <mxGeometry x="-770" y="-1910" width="30" height="60" as="geometry" />
        </mxCell>
        <mxCell id="yuhelbArQlDqQVYjPBpP-4" value="" style="endArrow=none;html=1;strokeColor=#000000;fontFamily=Comic Sans MS;fontSize=14;fontColor=#808080;exitX=0;exitY=0.5;exitDx=0;exitDy=0;" parent="1" source="5p-NlSDoAfAaVjURP9Gx-3" edge="1">
          <mxGeometry width="50" height="50" relative="1" as="geometry">
            <mxPoint x="-570" y="-1840" as="sourcePoint" />
            <mxPoint x="-720" y="-1940" as="targetPoint" />
          </mxGeometry>
        </mxCell>
        <mxCell id="yuhelbArQlDqQVYjPBpP-5" value="" style="endArrow=classic;dashed=1;html=1;strokeColor=#000000;fontFamily=Comic Sans MS;fontSize=14;fontColor=#808080;startArrow=none;startFill=0;endFill=1;endSize=7;startSize=7;jumpSize=6;entryX=0;entryY=0.5;entryDx=0;entryDy=0;exitX=1;exitY=0.5;exitDx=0;exitDy=0;" parent="1" source="zCbMEwx6MH1I6Aox6gtv-1" target="zCbMEwx6MH1I6Aox6gtv-23" edge="1">
          <mxGeometry width="50" height="50" relative="1" as="geometry">
            <mxPoint x="-340" y="-1785.5" as="sourcePoint" />
            <mxPoint x="-230" y="-1785.5" as="targetPoint" />
          </mxGeometry>
        </mxCell>
        <mxCell id="yuhelbArQlDqQVYjPBpP-6" value="&lt;font color=&quot;#000000&quot;&gt;&amp;lt;&amp;lt;include&amp;gt;&amp;gt;&lt;/font&gt;" style="text;html=1;resizable=0;points=[];align=center;verticalAlign=middle;labelBackgroundColor=#ffffff;fontSize=14;fontFamily=Comic Sans MS;fontColor=#808080;" parent="yuhelbArQlDqQVYjPBpP-5" vertex="1" connectable="0">
          <mxGeometry x="0.2" relative="1" as="geometry">
            <mxPoint x="6" y="7" as="offset" />
          </mxGeometry>
        </mxCell>
        <mxCell id="yuhelbArQlDqQVYjPBpP-7" value="Read, Update and Delete" style="shape=note;whiteSpace=wrap;html=1;size=14;verticalAlign=middle;align=left;spacingTop=4;fontFamily=Comic Sans MS;fontSize=14;spacingLeft=10;spacingRight=16;fillColor=none;spacing=0;spacingBottom=4;" parent="1" vertex="1">
          <mxGeometry x="-280" y="-2040" width="189" height="55" as="geometry" />
        </mxCell>
        <mxCell id="yuhelbArQlDqQVYjPBpP-8" value="" style="endArrow=none;dashed=1;html=1;exitX=0;exitY=0.5;exitDx=0;exitDy=0;exitPerimeter=0;entryX=1;entryY=0;entryDx=0;entryDy=0;" parent="1" source="yuhelbArQlDqQVYjPBpP-7" target="5p-NlSDoAfAaVjURP9Gx-4" edge="1">
          <mxGeometry width="50" height="50" relative="1" as="geometry">
            <mxPoint x="-286.57" y="-2110" as="sourcePoint" />
            <mxPoint x="-240" y="-1920" as="targetPoint" />
            <Array as="points">
              <mxPoint x="-360" y="-1970" />
            </Array>
          </mxGeometry>
        </mxCell>
        <mxCell id="qT_abWVe22HhI2fVeqkP-1" value="&lt;span style=&quot;background-color: rgb(255, 255, 255);&quot;&gt;&amp;lt;&amp;lt;RU&amp;gt;&amp;gt;&lt;/span&gt;&lt;br&gt;UC-1&lt;br&gt;Настроить&lt;br&gt;рекомендации" style="ellipse;whiteSpace=wrap;html=1;fontFamily=Comic Sans MS;fontSize=14;fillColor=none;strokeColor=#000000;" parent="1" vertex="1">
          <mxGeometry x="-520" y="-2200" width="180" height="110" as="geometry" />
        </mxCell>
        <mxCell id="5p-NlSDoAfAaVjURP9Gx-1" value="Read and Update" style="shape=note;whiteSpace=wrap;html=1;size=14;verticalAlign=middle;align=left;spacingTop=4;fontFamily=Comic Sans MS;fontSize=14;spacingLeft=10;spacingRight=16;fillColor=none;spacing=0;spacingBottom=4;" parent="1" vertex="1">
          <mxGeometry x="-320" y="-2255" width="139" height="55" as="geometry" />
        </mxCell>
        <mxCell id="5p-NlSDoAfAaVjURP9Gx-2" value="" style="endArrow=none;dashed=1;html=1;exitX=0;exitY=0.5;exitDx=0;exitDy=0;exitPerimeter=0;entryX=1;entryY=0;entryDx=0;entryDy=0;" parent="1" source="5p-NlSDoAfAaVjURP9Gx-1" target="qT_abWVe22HhI2fVeqkP-1" edge="1">
          <mxGeometry width="50" height="50" relative="1" as="geometry">
            <mxPoint x="-180" y="-2122.5" as="sourcePoint" />
            <mxPoint x="-229.92000000000007" y="-2050" as="targetPoint" />
            <Array as="points">
              <mxPoint x="-370" y="-2220" />
            </Array>
          </mxGeometry>
        </mxCell>
        <mxCell id="5p-NlSDoAfAaVjURP9Gx-3" value="UC-2&lt;br&gt;Просмотр рекомендаций" style="ellipse;whiteSpace=wrap;html=1;fontFamily=Comic Sans MS;fontSize=14;fillColor=none;strokeColor=#000000;" parent="1" vertex="1">
          <mxGeometry x="-520" y="-2080" width="180" height="110" as="geometry" />
        </mxCell>
        <mxCell id="5p-NlSDoAfAaVjURP9Gx-4" value="&lt;span style=&quot;background-color: rgb(255, 255, 255);&quot;&gt;&amp;lt;&amp;lt;RUD&amp;gt;&amp;gt;&lt;/span&gt;&lt;br&gt;UC-3&lt;br&gt;Управлять плейлистом любимых треков/релизов/подкастов/аудиокниг" style="ellipse;whiteSpace=wrap;html=1;fontFamily=Comic Sans MS;fontSize=14;fillColor=none;strokeColor=#000000;" parent="1" vertex="1">
          <mxGeometry x="-520" y="-1960" width="180" height="110" as="geometry" />
        </mxCell>
        <mxCell id="zCbMEwx6MH1I6Aox6gtv-1" value="UC-4&lt;br&gt;Прослушивание через плеер" style="ellipse;whiteSpace=wrap;html=1;fontFamily=Comic Sans MS;fontSize=14;fillColor=none;strokeColor=#000000;" parent="1" vertex="1">
          <mxGeometry x="-520" y="-1840" width="180" height="110" as="geometry" />
        </mxCell>
        <mxCell id="zCbMEwx6MH1I6Aox6gtv-2" value="UC-5&lt;br&gt;Посмотреть информацию о треке/релизе/подкасте/аудиокниге" style="ellipse;whiteSpace=wrap;html=1;fontFamily=Comic Sans MS;fontSize=14;fillColor=none;strokeColor=#000000;" parent="1" vertex="1">
          <mxGeometry x="-520" y="-1720" width="180" height="110" as="geometry" />
        </mxCell>
        <mxCell id="zCbMEwx6MH1I6Aox6gtv-7" value="UC-6&lt;br&gt;Поделиться треком/релизом/подкастом/аудиокнигой" style="ellipse;whiteSpace=wrap;html=1;fontFamily=Comic Sans MS;fontSize=14;fillColor=none;strokeColor=#000000;" parent="1" vertex="1">
          <mxGeometry x="-520" y="-1600" width="180" height="110" as="geometry" />
        </mxCell>
        <mxCell id="zCbMEwx6MH1I6Aox6gtv-8" value="&lt;span style=&quot;background-color: rgb(255, 255, 255);&quot;&gt;&amp;lt;&amp;lt;RUD&amp;gt;&amp;gt;&lt;/span&gt;&lt;br&gt;UC-7&lt;br&gt;Управлять ЧС треков/подкастов/аудиокниг" style="ellipse;whiteSpace=wrap;html=1;fontFamily=Comic Sans MS;fontSize=14;fillColor=none;strokeColor=#000000;" parent="1" vertex="1">
          <mxGeometry x="-520" y="-1480" width="180" height="110" as="geometry" />
        </mxCell>
        <mxCell id="zCbMEwx6MH1I6Aox6gtv-9" value="&lt;span style=&quot;background-color: rgb(255, 255, 255);&quot;&gt;&amp;lt;&amp;lt;CRUD&amp;gt;&amp;gt;&lt;/span&gt;&lt;br&gt;UC-8&lt;br&gt;Управлять своим плейлистом" style="ellipse;whiteSpace=wrap;html=1;fontFamily=Comic Sans MS;fontSize=14;fillColor=none;strokeColor=#000000;" parent="1" vertex="1">
          <mxGeometry x="-520" y="-1360" width="180" height="110" as="geometry" />
        </mxCell>
        <mxCell id="zCbMEwx6MH1I6Aox6gtv-10" value="" style="endArrow=none;html=1;strokeColor=#000000;fontFamily=Comic Sans MS;fontSize=14;fontColor=#808080;exitX=0;exitY=0.5;exitDx=0;exitDy=0;" parent="1" source="5p-NlSDoAfAaVjURP9Gx-4" edge="1">
          <mxGeometry width="50" height="50" relative="1" as="geometry">
            <mxPoint x="-560" y="-1830" as="sourcePoint" />
            <mxPoint x="-720" y="-1920" as="targetPoint" />
          </mxGeometry>
        </mxCell>
        <mxCell id="zCbMEwx6MH1I6Aox6gtv-11" value="" style="endArrow=none;html=1;strokeColor=#000000;fontFamily=Comic Sans MS;fontSize=14;fontColor=#808080;exitX=0;exitY=0.5;exitDx=0;exitDy=0;" parent="1" source="zCbMEwx6MH1I6Aox6gtv-1" edge="1">
          <mxGeometry width="50" height="50" relative="1" as="geometry">
            <mxPoint x="-550" y="-1820" as="sourcePoint" />
            <mxPoint x="-720" y="-1900" as="targetPoint" />
          </mxGeometry>
        </mxCell>
        <mxCell id="zCbMEwx6MH1I6Aox6gtv-12" value="" style="endArrow=none;html=1;strokeColor=#000000;fontFamily=Comic Sans MS;fontSize=14;fontColor=#808080;exitX=0;exitY=0.5;exitDx=0;exitDy=0;" parent="1" source="zCbMEwx6MH1I6Aox6gtv-2" edge="1">
          <mxGeometry width="50" height="50" relative="1" as="geometry">
            <mxPoint x="-540" y="-1810" as="sourcePoint" />
            <mxPoint x="-720" y="-1880" as="targetPoint" />
          </mxGeometry>
        </mxCell>
        <mxCell id="zCbMEwx6MH1I6Aox6gtv-13" value="" style="endArrow=none;html=1;strokeColor=#000000;fontFamily=Comic Sans MS;fontSize=14;fontColor=#808080;exitX=0;exitY=0.5;exitDx=0;exitDy=0;" parent="1" source="zCbMEwx6MH1I6Aox6gtv-7" edge="1">
          <mxGeometry width="50" height="50" relative="1" as="geometry">
            <mxPoint x="-530" y="-1800" as="sourcePoint" />
            <mxPoint x="-720" y="-1860" as="targetPoint" />
          </mxGeometry>
        </mxCell>
        <mxCell id="zCbMEwx6MH1I6Aox6gtv-14" value="" style="endArrow=none;html=1;strokeColor=#000000;fontFamily=Comic Sans MS;fontSize=14;fontColor=#808080;exitX=0;exitY=0.5;exitDx=0;exitDy=0;" parent="1" source="zCbMEwx6MH1I6Aox6gtv-8" edge="1">
          <mxGeometry width="50" height="50" relative="1" as="geometry">
            <mxPoint x="-520" y="-1790" as="sourcePoint" />
            <mxPoint x="-720" y="-1820" as="targetPoint" />
          </mxGeometry>
        </mxCell>
        <mxCell id="zCbMEwx6MH1I6Aox6gtv-15" value="" style="endArrow=none;html=1;strokeColor=#000000;fontFamily=Comic Sans MS;fontSize=14;fontColor=#808080;exitX=0;exitY=0.5;exitDx=0;exitDy=0;" parent="1" source="zCbMEwx6MH1I6Aox6gtv-9" edge="1">
          <mxGeometry width="50" height="50" relative="1" as="geometry">
            <mxPoint x="-510" y="-1780" as="sourcePoint" />
            <mxPoint x="-720" y="-1800" as="targetPoint" />
          </mxGeometry>
        </mxCell>
        <mxCell id="zCbMEwx6MH1I6Aox6gtv-23" value="UC-4.1&lt;br&gt;Воспроизвести трек/подкаст/&lt;br&gt;аудиокнигу" style="ellipse;whiteSpace=wrap;html=1;fontFamily=Comic Sans MS;fontSize=14;fillColor=none;strokeColor=#000000;" parent="1" vertex="1">
          <mxGeometry x="-200" y="-1960" width="180" height="110" as="geometry" />
        </mxCell>
        <mxCell id="zCbMEwx6MH1I6Aox6gtv-24" value="UC-4.2&lt;br&gt;Пауза трека/подкаста/&lt;br&gt;аудиокниги" style="ellipse;whiteSpace=wrap;html=1;fontFamily=Comic Sans MS;fontSize=14;fillColor=none;strokeColor=#000000;" parent="1" vertex="1">
          <mxGeometry x="-200" y="-1840" width="180" height="110" as="geometry" />
        </mxCell>
        <mxCell id="zCbMEwx6MH1I6Aox6gtv-25" value="UC-4.3&lt;br&gt;Перемотка трека/подкаста/&lt;br&gt;аудиокниги" style="ellipse;whiteSpace=wrap;html=1;fontFamily=Comic Sans MS;fontSize=14;fillColor=none;strokeColor=#000000;" parent="1" vertex="1">
          <mxGeometry x="-200" y="-1720" width="180" height="110" as="geometry" />
        </mxCell>
        <mxCell id="zCbMEwx6MH1I6Aox6gtv-28" value="UC-4.4&lt;br&gt;Добаваить в любимые/в ЧС трек/подкаст/&lt;br&gt;аудиокнигу" style="ellipse;whiteSpace=wrap;html=1;fontFamily=Comic Sans MS;fontSize=14;fillColor=none;strokeColor=#000000;" parent="1" vertex="1">
          <mxGeometry x="-200" y="-1600" width="180" height="110" as="geometry" />
        </mxCell>
        <mxCell id="GSuH8tbNlvQI_PebEsN5-1" value="" style="endArrow=classic;dashed=1;html=1;strokeColor=#000000;fontFamily=Comic Sans MS;fontSize=14;fontColor=#808080;startArrow=none;startFill=0;endFill=1;endSize=7;startSize=7;jumpSize=6;entryX=0;entryY=0.5;entryDx=0;entryDy=0;exitX=1;exitY=0.5;exitDx=0;exitDy=0;" parent="1" source="zCbMEwx6MH1I6Aox6gtv-1" target="zCbMEwx6MH1I6Aox6gtv-24" edge="1">
          <mxGeometry width="50" height="50" relative="1" as="geometry">
            <mxPoint x="-329.9999999999984" y="-1775" as="sourcePoint" />
            <mxPoint x="-270.00000000000114" y="-1895" as="targetPoint" />
          </mxGeometry>
        </mxCell>
        <mxCell id="GSuH8tbNlvQI_PebEsN5-2" value="&lt;font color=&quot;#000000&quot;&gt;&amp;lt;&amp;lt;include&amp;gt;&amp;gt;&lt;/font&gt;" style="text;html=1;resizable=0;points=[];align=center;verticalAlign=middle;labelBackgroundColor=#ffffff;fontSize=14;fontFamily=Comic Sans MS;fontColor=#808080;" parent="GSuH8tbNlvQI_PebEsN5-1" vertex="1" connectable="0">
          <mxGeometry x="0.2" relative="1" as="geometry">
            <mxPoint x="6" y="15" as="offset" />
          </mxGeometry>
        </mxCell>
        <mxCell id="GSuH8tbNlvQI_PebEsN5-3" value="" style="endArrow=classic;dashed=1;html=1;strokeColor=#000000;fontFamily=Comic Sans MS;fontSize=14;fontColor=#808080;startArrow=none;startFill=0;endFill=1;endSize=7;startSize=7;jumpSize=6;entryX=0;entryY=0.5;entryDx=0;entryDy=0;exitX=1;exitY=0.5;exitDx=0;exitDy=0;" parent="1" source="zCbMEwx6MH1I6Aox6gtv-1" target="zCbMEwx6MH1I6Aox6gtv-25" edge="1">
          <mxGeometry width="50" height="50" relative="1" as="geometry">
            <mxPoint x="-329.9999999999984" y="-1775" as="sourcePoint" />
            <mxPoint x="-270.00000000000114" y="-1775" as="targetPoint" />
          </mxGeometry>
        </mxCell>
        <mxCell id="GSuH8tbNlvQI_PebEsN5-4" value="&lt;font color=&quot;#000000&quot;&gt;&amp;lt;&amp;lt;include&amp;gt;&amp;gt;&lt;/font&gt;" style="text;html=1;resizable=0;points=[];align=center;verticalAlign=middle;labelBackgroundColor=#ffffff;fontSize=14;fontFamily=Comic Sans MS;fontColor=#808080;" parent="GSuH8tbNlvQI_PebEsN5-3" vertex="1" connectable="0">
          <mxGeometry x="0.2" relative="1" as="geometry">
            <mxPoint x="6" y="13" as="offset" />
          </mxGeometry>
        </mxCell>
        <mxCell id="GSuH8tbNlvQI_PebEsN5-5" value="" style="endArrow=classic;dashed=1;html=1;strokeColor=#000000;fontFamily=Comic Sans MS;fontSize=14;fontColor=#808080;startArrow=none;startFill=0;endFill=1;endSize=7;startSize=7;jumpSize=6;entryX=0;entryY=0.5;entryDx=0;entryDy=0;exitX=1;exitY=0.5;exitDx=0;exitDy=0;" parent="1" source="zCbMEwx6MH1I6Aox6gtv-1" target="zCbMEwx6MH1I6Aox6gtv-28" edge="1">
          <mxGeometry width="50" height="50" relative="1" as="geometry">
            <mxPoint x="-329.9999999999984" y="-1775" as="sourcePoint" />
            <mxPoint x="-270.00000000000114" y="-1655" as="targetPoint" />
          </mxGeometry>
        </mxCell>
        <mxCell id="GSuH8tbNlvQI_PebEsN5-6" value="&lt;font color=&quot;#000000&quot;&gt;&amp;lt;&amp;lt;include&amp;gt;&amp;gt;&lt;/font&gt;" style="text;html=1;resizable=0;points=[];align=center;verticalAlign=middle;labelBackgroundColor=#ffffff;fontSize=14;fontFamily=Comic Sans MS;fontColor=#808080;" parent="GSuH8tbNlvQI_PebEsN5-5" vertex="1" connectable="0">
          <mxGeometry x="0.2" relative="1" as="geometry">
            <mxPoint x="5" y="31" as="offset" />
          </mxGeometry>
        </mxCell>
        <mxCell id="GSuH8tbNlvQI_PebEsN5-7" value="" style="endArrow=classic;dashed=1;html=1;strokeColor=#000000;fontFamily=Comic Sans MS;fontSize=14;fontColor=#808080;startArrow=none;startFill=0;endFill=1;endSize=7;startSize=7;jumpSize=6;exitX=0;exitY=0.5;exitDx=0;exitDy=0;entryX=1;entryY=0.5;entryDx=0;entryDy=0;" parent="1" source="GSuH8tbNlvQI_PebEsN5-9" target="zCbMEwx6MH1I6Aox6gtv-7" edge="1">
          <mxGeometry width="50" height="50" relative="1" as="geometry">
            <mxPoint x="-130" y="-1449.9999999999998" as="sourcePoint" />
            <mxPoint x="-300" y="-1449.9999999999998" as="targetPoint" />
          </mxGeometry>
        </mxCell>
        <mxCell id="GSuH8tbNlvQI_PebEsN5-8" value="&lt;font color=&quot;#000000&quot;&gt;&amp;lt;&amp;lt;extend&amp;gt;&amp;gt;&lt;br&gt;&lt;/font&gt;" style="text;html=1;resizable=0;points=[];align=center;verticalAlign=middle;labelBackgroundColor=#ffffff;fontSize=14;fontFamily=Comic Sans MS;fontColor=#808080;" parent="GSuH8tbNlvQI_PebEsN5-7" vertex="1" connectable="0">
          <mxGeometry x="0.2" relative="1" as="geometry">
            <mxPoint x="24" y="-13" as="offset" />
          </mxGeometry>
        </mxCell>
        <mxCell id="GSuH8tbNlvQI_PebEsN5-9" value="UC-5.1&lt;br&gt;Выбор соцсети&lt;br&gt;для репоста" style="ellipse;whiteSpace=wrap;html=1;fontFamily=Comic Sans MS;fontSize=14;fillColor=none;strokeColor=#000000;" parent="1" vertex="1">
          <mxGeometry x="-200" y="-1480" width="180" height="110" as="geometry" />
        </mxCell>
        <mxCell id="fz9hP89FQ_ACw5GN5HW1-1" value="&lt;font style=&quot;font-size: 14px;&quot; face=&quot;Comic Sans MS&quot;&gt;(поделиться через…)&lt;/font&gt;" style="text;html=1;align=center;verticalAlign=middle;resizable=0;points=[];autosize=1;strokeColor=none;fillColor=none;" parent="1" vertex="1">
          <mxGeometry x="-341" y="-1480" width="160" height="30" as="geometry" />
        </mxCell>
      </root>
    </mxGraphModel>
  </diagram>
  <diagram id="0sbEm76KRQwUv1t0IOIC" name="user2">
    <mxGraphModel dx="1877" dy="2967" grid="1" gridSize="10" guides="1" tooltips="1" connect="1" arrows="1" fold="1" page="1" pageScale="1" pageWidth="827" pageHeight="1169" math="0" shadow="0">
      <root>
        <mxCell id="0" />
        <mxCell id="1" parent="0" />
        <mxCell id="lEQPL2SIEI5Fo5iIU-qm-1" value="" style="rounded=0;whiteSpace=wrap;html=1;fillColor=none;strokeColor=#B3B3B3;" parent="1" vertex="1">
          <mxGeometry x="-680" y="-2279" width="640" height="559" as="geometry" />
        </mxCell>
        <mxCell id="hsqYbhurfhA30c7WimW3-1" value="Пользователь" style="shape=umlActor;verticalLabelPosition=bottom;labelBackgroundColor=#ffffff;verticalAlign=top;html=1;outlineConnect=0;strokeColor=#000000;fontFamily=Comic Sans MS;fontSize=14;fontColor=#000000;" parent="1" vertex="1">
          <mxGeometry x="-760" y="-2000" width="30" height="60" as="geometry" />
        </mxCell>
        <mxCell id="SCdOVMh8_TbXEkhFKKeZ-1" value="UC-9&lt;br&gt;Включить режим &lt;br&gt;повтора трека" style="ellipse;whiteSpace=wrap;html=1;fontFamily=Comic Sans MS;fontSize=14;fillColor=none;strokeColor=#000000;" parent="1" vertex="1">
          <mxGeometry x="-640" y="-2120" width="180" height="110" as="geometry" />
        </mxCell>
        <mxCell id="SCdOVMh8_TbXEkhFKKeZ-3" value="UC-9.1&lt;br&gt;Повтор текущего трека" style="ellipse;whiteSpace=wrap;html=1;fontFamily=Comic Sans MS;fontSize=14;fillColor=none;strokeColor=#000000;" parent="1" vertex="1">
          <mxGeometry x="-280" y="-2240" width="180" height="110" as="geometry" />
        </mxCell>
        <mxCell id="SCdOVMh8_TbXEkhFKKeZ-4" value="UC-9.2&lt;br&gt;Повтор всего плейлиста" style="ellipse;whiteSpace=wrap;html=1;fontFamily=Comic Sans MS;fontSize=14;fillColor=none;strokeColor=#000000;" parent="1" vertex="1">
          <mxGeometry x="-280" y="-2080" width="180" height="110" as="geometry" />
        </mxCell>
        <mxCell id="SCdOVMh8_TbXEkhFKKeZ-6" value="UC-10.1&lt;br&gt;Изменить порядок треков" style="ellipse;whiteSpace=wrap;html=1;fontFamily=Comic Sans MS;fontSize=14;fillColor=none;strokeColor=#000000;" parent="1" vertex="1">
          <mxGeometry x="-280" y="-1920" width="180" height="110" as="geometry" />
        </mxCell>
        <mxCell id="SCdOVMh8_TbXEkhFKKeZ-7" value="UC-10&lt;br&gt;Просмотр треков в плейлисте" style="ellipse;whiteSpace=wrap;html=1;fontFamily=Comic Sans MS;fontSize=14;fillColor=none;strokeColor=#000000;" parent="1" vertex="1">
          <mxGeometry x="-640" y="-1920" width="180" height="110" as="geometry" />
        </mxCell>
        <mxCell id="yKBBoil4-6dGkTlJlFDZ-3" value="" style="endArrow=classic;dashed=1;html=1;strokeColor=#000000;fontFamily=Comic Sans MS;fontSize=14;fontColor=#808080;startArrow=none;startFill=0;endFill=1;endSize=7;startSize=7;jumpSize=6;entryX=1;entryY=0.5;entryDx=0;entryDy=0;exitX=0;exitY=0.5;exitDx=0;exitDy=0;" parent="1" source="SCdOVMh8_TbXEkhFKKeZ-6" target="SCdOVMh8_TbXEkhFKKeZ-7" edge="1">
          <mxGeometry width="50" height="50" relative="1" as="geometry">
            <mxPoint x="-380" y="-1800" as="sourcePoint" />
            <mxPoint x="-180" y="-1885" as="targetPoint" />
          </mxGeometry>
        </mxCell>
        <mxCell id="yKBBoil4-6dGkTlJlFDZ-4" value="&lt;font color=&quot;#000000&quot;&gt;&amp;lt;&amp;lt;extend&amp;gt;&amp;gt;&lt;/font&gt;" style="text;html=1;resizable=0;points=[];align=center;verticalAlign=middle;labelBackgroundColor=#ffffff;fontSize=14;fontFamily=Comic Sans MS;fontColor=#808080;" parent="yKBBoil4-6dGkTlJlFDZ-3" vertex="1" connectable="0">
          <mxGeometry x="0.2" relative="1" as="geometry">
            <mxPoint x="20" y="-25" as="offset" />
          </mxGeometry>
        </mxCell>
        <mxCell id="MeaSGuzQbzdxbET3n4Vn-1" value="" style="endArrow=none;html=1;strokeColor=#000000;fontFamily=Comic Sans MS;fontSize=14;fontColor=#808080;exitX=0;exitY=0.5;exitDx=0;exitDy=0;" parent="1" source="SCdOVMh8_TbXEkhFKKeZ-7" edge="1">
          <mxGeometry width="50" height="50" relative="1" as="geometry">
            <mxPoint x="-520" y="-1305" as="sourcePoint" />
            <mxPoint x="-720" y="-1960" as="targetPoint" />
          </mxGeometry>
        </mxCell>
        <mxCell id="MeaSGuzQbzdxbET3n4Vn-2" value="" style="endArrow=none;html=1;strokeColor=#000000;fontFamily=Comic Sans MS;fontSize=14;fontColor=#808080;exitX=0;exitY=0.5;exitDx=0;exitDy=0;" parent="1" source="SCdOVMh8_TbXEkhFKKeZ-1" edge="1">
          <mxGeometry width="50" height="50" relative="1" as="geometry">
            <mxPoint x="-630" y="-1855" as="sourcePoint" />
            <mxPoint x="-720" y="-1980" as="targetPoint" />
          </mxGeometry>
        </mxCell>
        <mxCell id="MeaSGuzQbzdxbET3n4Vn-3" value="&lt;font style=&quot;font-size: 14px;&quot; face=&quot;Comic Sans MS&quot;&gt;(взаимодействие с элементом&lt;br&gt;&amp;nbsp;интерфейса «перемешать треки»)&lt;/font&gt;" style="text;html=1;align=center;verticalAlign=middle;resizable=0;points=[];autosize=1;strokeColor=none;fillColor=none;" parent="1" vertex="1">
          <mxGeometry x="-500" y="-1850" width="260" height="50" as="geometry" />
        </mxCell>
        <mxCell id="cqd5tlkqpcFFeJ1QqjTB-1" value="" style="endArrow=block;endSize=16;endFill=0;html=1;rounded=0;exitX=0;exitY=0.5;exitDx=0;exitDy=0;entryX=1;entryY=0.5;entryDx=0;entryDy=0;" edge="1" parent="1" source="SCdOVMh8_TbXEkhFKKeZ-3" target="SCdOVMh8_TbXEkhFKKeZ-1">
          <mxGeometry width="160" relative="1" as="geometry">
            <mxPoint x="-520" y="-1990" as="sourcePoint" />
            <mxPoint x="-360" y="-1990" as="targetPoint" />
          </mxGeometry>
        </mxCell>
        <mxCell id="cqd5tlkqpcFFeJ1QqjTB-2" value="" style="endArrow=block;endSize=16;endFill=0;html=1;rounded=0;exitX=0;exitY=0.5;exitDx=0;exitDy=0;entryX=1;entryY=0.5;entryDx=0;entryDy=0;" edge="1" parent="1" source="SCdOVMh8_TbXEkhFKKeZ-4" target="SCdOVMh8_TbXEkhFKKeZ-1">
          <mxGeometry width="160" relative="1" as="geometry">
            <mxPoint x="-510" y="-1980" as="sourcePoint" />
            <mxPoint x="-350" y="-1980" as="targetPoint" />
          </mxGeometry>
        </mxCell>
      </root>
    </mxGraphModel>
  </diagram>
  <diagram id="TIul_J1tESc1VqLzdTT-" name="admin">
    <mxGraphModel dx="1877" dy="2967" grid="1" gridSize="10" guides="1" tooltips="1" connect="1" arrows="1" fold="1" page="1" pageScale="1" pageWidth="827" pageHeight="1169" math="0" shadow="0">
      <root>
        <mxCell id="0" />
        <mxCell id="1" parent="0" />
        <mxCell id="bALs6GfitmETPpMY79Jh-1" value="" style="rounded=0;whiteSpace=wrap;html=1;fillColor=none;strokeColor=#B3B3B3;" parent="1" vertex="1">
          <mxGeometry x="-600" y="-2200" width="560" height="680" as="geometry" />
        </mxCell>
        <mxCell id="bALs6GfitmETPpMY79Jh-3" value="" style="endArrow=none;html=1;strokeColor=#000000;fontFamily=Comic Sans MS;fontSize=14;fontColor=#808080;exitX=0;exitY=0.5;exitDx=0;exitDy=0;" parent="1" source="bALs6GfitmETPpMY79Jh-5" edge="1">
          <mxGeometry width="50" height="50" relative="1" as="geometry">
            <mxPoint x="-536.5685424949233" y="-2104.644660940673" as="sourcePoint" />
            <mxPoint x="-710" y="-1920" as="targetPoint" />
          </mxGeometry>
        </mxCell>
        <mxCell id="bALs6GfitmETPpMY79Jh-4" value="Администратор" style="shape=umlActor;verticalLabelPosition=bottom;labelBackgroundColor=#ffffff;verticalAlign=top;html=1;outlineConnect=0;strokeColor=#000000;fontFamily=Comic Sans MS;fontSize=14;fontColor=#000000;" parent="1" vertex="1">
          <mxGeometry x="-770" y="-1910" width="30" height="60" as="geometry" />
        </mxCell>
        <mxCell id="bALs6GfitmETPpMY79Jh-5" value="&amp;lt;&amp;lt;RD&amp;gt;&amp;gt;&lt;br&gt;UC-11&lt;br&gt;Проверка треков/релизов автора (-ов)" style="ellipse;whiteSpace=wrap;html=1;fontFamily=Comic Sans MS;fontSize=14;fillColor=none;strokeColor=#000000;" parent="1" vertex="1">
          <mxGeometry x="-520" y="-2160" width="180" height="110" as="geometry" />
        </mxCell>
        <mxCell id="bALs6GfitmETPpMY79Jh-7" value="&amp;lt;&amp;lt;RD&amp;gt;&amp;gt;&lt;br style=&quot;border-color: var(--border-color);&quot;&gt;UC-13&lt;br style=&quot;border-color: var(--border-color);&quot;&gt;Проверка обложек автора (-ов)" style="ellipse;whiteSpace=wrap;html=1;fontFamily=Comic Sans MS;fontSize=14;fillColor=none;strokeColor=#000000;" parent="1" vertex="1">
          <mxGeometry x="-520" y="-1840" width="160" height="100" as="geometry" />
        </mxCell>
        <mxCell id="bALs6GfitmETPpMY79Jh-8" value="" style="endArrow=none;html=1;strokeColor=#000000;fontFamily=Comic Sans MS;fontSize=14;fontColor=#808080;exitX=0;exitY=0.5;exitDx=0;exitDy=0;" parent="1" source="bALs6GfitmETPpMY79Jh-7" edge="1">
          <mxGeometry width="50" height="50" relative="1" as="geometry">
            <mxPoint x="-650" y="-1570" as="sourcePoint" />
            <mxPoint x="-710" y="-1880" as="targetPoint" />
          </mxGeometry>
        </mxCell>
        <mxCell id="5oHKC99iFr71S6t7FVUU-2" value="Read and Delete" style="shape=note;whiteSpace=wrap;html=1;size=14;verticalAlign=middle;align=left;spacingTop=4;fontFamily=Comic Sans MS;fontSize=14;spacingLeft=10;spacingRight=16;fillColor=none;spacing=0;spacingBottom=4;" parent="1" vertex="1">
          <mxGeometry x="-279" y="-2160" width="139" height="55" as="geometry" />
        </mxCell>
        <mxCell id="5oHKC99iFr71S6t7FVUU-3" value="" style="endArrow=none;dashed=1;html=1;exitX=0;exitY=0.5;exitDx=0;exitDy=0;exitPerimeter=0;entryX=1;entryY=0.5;entryDx=0;entryDy=0;" parent="1" source="5oHKC99iFr71S6t7FVUU-2" target="bALs6GfitmETPpMY79Jh-5" edge="1">
          <mxGeometry width="50" height="50" relative="1" as="geometry">
            <mxPoint x="-286.57" y="-2110" as="sourcePoint" />
            <mxPoint x="-360" y="-2065" as="targetPoint" />
            <Array as="points">
              <mxPoint x="-317" y="-2130" />
            </Array>
          </mxGeometry>
        </mxCell>
        <mxCell id="TTgkZmjD8WEqXJFUawaf-1" value="" style="endArrow=none;html=1;strokeColor=#000000;fontFamily=Comic Sans MS;fontSize=14;fontColor=#808080;exitX=0;exitY=0.5;exitDx=0;exitDy=0;" edge="1" parent="1" source="TTgkZmjD8WEqXJFUawaf-5">
          <mxGeometry width="50" height="50" relative="1" as="geometry">
            <mxPoint x="-453.63961030678934" y="-1906.10912703474" as="sourcePoint" />
            <mxPoint x="-710" y="-1900" as="targetPoint" />
          </mxGeometry>
        </mxCell>
        <mxCell id="TTgkZmjD8WEqXJFUawaf-2" value="" style="endArrow=none;html=1;strokeColor=#000000;fontFamily=Comic Sans MS;fontSize=14;fontColor=#808080;exitX=0;exitY=0.5;exitDx=0;exitDy=0;" edge="1" parent="1" source="TTgkZmjD8WEqXJFUawaf-6">
          <mxGeometry width="50" height="50" relative="1" as="geometry">
            <mxPoint x="-456.5685424949238" y="-1705.3553390593274" as="sourcePoint" />
            <mxPoint x="-710" y="-1860" as="targetPoint" />
          </mxGeometry>
        </mxCell>
        <mxCell id="TTgkZmjD8WEqXJFUawaf-3" value="Create" style="shape=note;whiteSpace=wrap;html=1;size=14;verticalAlign=middle;align=left;spacingTop=4;fontFamily=Comic Sans MS;fontSize=14;spacingLeft=10;spacingRight=16;fillColor=none;spacing=0;spacingBottom=4;" vertex="1" parent="1">
          <mxGeometry x="-239" y="-2040" width="69" height="55" as="geometry" />
        </mxCell>
        <mxCell id="TTgkZmjD8WEqXJFUawaf-4" value="" style="endArrow=none;dashed=1;html=1;exitX=0;exitY=0.5;exitDx=0;exitDy=0;exitPerimeter=0;entryX=1;entryY=0.5;entryDx=0;entryDy=0;" edge="1" parent="1" source="TTgkZmjD8WEqXJFUawaf-3" target="TTgkZmjD8WEqXJFUawaf-5">
          <mxGeometry width="50" height="50" relative="1" as="geometry">
            <mxPoint x="-246.57" y="-1990" as="sourcePoint" />
            <mxPoint x="-290" y="-1945" as="targetPoint" />
            <Array as="points">
              <mxPoint x="-320" y="-2000" />
            </Array>
          </mxGeometry>
        </mxCell>
        <mxCell id="TTgkZmjD8WEqXJFUawaf-5" value="UC-12&lt;br&gt;Загрузка треков/релизов/подкастов/аудиокниг" style="ellipse;whiteSpace=wrap;html=1;fontFamily=Comic Sans MS;fontSize=14;fillColor=none;strokeColor=#000000;" vertex="1" parent="1">
          <mxGeometry x="-520" y="-2000" width="180" height="110" as="geometry" />
        </mxCell>
        <mxCell id="TTgkZmjD8WEqXJFUawaf-6" value="UC-14&lt;br&gt;Загрузка обложки (-ек)" style="ellipse;whiteSpace=wrap;html=1;fontFamily=Comic Sans MS;fontSize=14;fillColor=none;strokeColor=#000000;" vertex="1" parent="1">
          <mxGeometry x="-520" y="-1690" width="180" height="110" as="geometry" />
        </mxCell>
      </root>
    </mxGraphModel>
  </diagram>
  <diagram id="MQ4fabU3eBlyvR4fKZUi" name="content-manager">
    <mxGraphModel dx="1877" dy="2967" grid="1" gridSize="10" guides="1" tooltips="1" connect="1" arrows="1" fold="1" page="1" pageScale="1" pageWidth="827" pageHeight="1169" math="0" shadow="0">
      <root>
        <mxCell id="0" />
        <mxCell id="1" parent="0" />
        <mxCell id="gFJBynvqeBFDHYC_PQJG-1" value="" style="rounded=0;whiteSpace=wrap;html=1;fillColor=none;strokeColor=#B3B3B3;" parent="1" vertex="1">
          <mxGeometry x="-600" y="-2200" width="560" height="560" as="geometry" />
        </mxCell>
        <mxCell id="gFJBynvqeBFDHYC_PQJG-5" value="" style="endArrow=none;html=1;strokeColor=#000000;fontFamily=Comic Sans MS;fontSize=14;fontColor=#808080;exitX=0;exitY=0.5;exitDx=0;exitDy=0;" parent="1" source="gFJBynvqeBFDHYC_PQJG-10" edge="1">
          <mxGeometry width="50" height="50" relative="1" as="geometry">
            <mxPoint x="-537" y="-1950" as="sourcePoint" />
            <mxPoint x="-710" y="-1870" as="targetPoint" />
          </mxGeometry>
        </mxCell>
        <mxCell id="gFJBynvqeBFDHYC_PQJG-6" value="" style="endArrow=none;html=1;strokeColor=#000000;fontFamily=Comic Sans MS;fontSize=14;fontColor=#808080;exitX=0;exitY=0.5;exitDx=0;exitDy=0;" parent="1" source="gFJBynvqeBFDHYC_PQJG-9" edge="1">
          <mxGeometry width="50" height="50" relative="1" as="geometry">
            <mxPoint x="-536.5685424949233" y="-2104.644660940673" as="sourcePoint" />
            <mxPoint x="-710" y="-1920" as="targetPoint" />
          </mxGeometry>
        </mxCell>
        <mxCell id="gFJBynvqeBFDHYC_PQJG-7" value="Контент-&lt;br&gt;менеджер" style="shape=umlActor;verticalLabelPosition=bottom;labelBackgroundColor=#ffffff;verticalAlign=top;html=1;outlineConnect=0;strokeColor=#000000;fontFamily=Comic Sans MS;fontSize=14;fontColor=#000000;" parent="1" vertex="1">
          <mxGeometry x="-770" y="-1910" width="30" height="60" as="geometry" />
        </mxCell>
        <mxCell id="gFJBynvqeBFDHYC_PQJG-9" value="&amp;lt;&amp;lt;CRUD&amp;gt;&amp;gt;&lt;br&gt;UC-15&lt;br&gt;Управление рекомендациями" style="ellipse;whiteSpace=wrap;html=1;fontFamily=Comic Sans MS;fontSize=14;fillColor=none;strokeColor=#000000;" parent="1" vertex="1">
          <mxGeometry x="-520" y="-2120" width="160" height="100" as="geometry" />
        </mxCell>
        <mxCell id="gFJBynvqeBFDHYC_PQJG-10" value="UC-16&lt;br&gt;Просмотр общей статистики" style="ellipse;whiteSpace=wrap;html=1;fontFamily=Comic Sans MS;fontSize=14;fillColor=none;strokeColor=#000000;" parent="1" vertex="1">
          <mxGeometry x="-520" y="-1960" width="160" height="100" as="geometry" />
        </mxCell>
        <mxCell id="gFJBynvqeBFDHYC_PQJG-19" value="&amp;lt;&amp;lt;CRUD&amp;gt;&amp;gt;&lt;br&gt;UC-17&lt;br&gt;Управление&lt;br&gt;рекламой" style="ellipse;whiteSpace=wrap;html=1;fontFamily=Comic Sans MS;fontSize=14;fillColor=none;strokeColor=#000000;" parent="1" vertex="1">
          <mxGeometry x="-520" y="-1800" width="160" height="100" as="geometry" />
        </mxCell>
        <mxCell id="gFJBynvqeBFDHYC_PQJG-20" value="" style="endArrow=none;html=1;strokeColor=#000000;fontFamily=Comic Sans MS;fontSize=14;fontColor=#808080;exitX=0;exitY=0.5;exitDx=0;exitDy=0;" parent="1" source="gFJBynvqeBFDHYC_PQJG-19" edge="1">
          <mxGeometry width="50" height="50" relative="1" as="geometry">
            <mxPoint x="-650" y="-1570" as="sourcePoint" />
            <mxPoint x="-710" y="-1820" as="targetPoint" />
          </mxGeometry>
        </mxCell>
        <mxCell id="gFJBynvqeBFDHYC_PQJG-25" value="UC-14.1&lt;br&gt;Просмотр статистики конкретного (-ых) &lt;br&gt;автора (-ов)" style="ellipse;whiteSpace=wrap;html=1;fontFamily=Comic Sans MS;fontSize=14;fillColor=none;strokeColor=#000000;" parent="1" vertex="1">
          <mxGeometry x="-250" y="-1960" width="180" height="100" as="geometry" />
        </mxCell>
        <mxCell id="gFJBynvqeBFDHYC_PQJG-26" value="" style="endArrow=classic;dashed=1;html=1;strokeColor=#000000;fontFamily=Comic Sans MS;fontSize=14;fontColor=#808080;startArrow=none;startFill=0;endFill=1;endSize=7;startSize=7;jumpSize=6;entryX=0;entryY=0.5;entryDx=0;entryDy=0;exitX=1;exitY=0.5;exitDx=0;exitDy=0;" parent="1" source="gFJBynvqeBFDHYC_PQJG-10" target="gFJBynvqeBFDHYC_PQJG-25" edge="1">
          <mxGeometry width="50" height="50" relative="1" as="geometry">
            <mxPoint x="-410" y="-1900" as="sourcePoint" />
            <mxPoint x="-290" y="-1900" as="targetPoint" />
          </mxGeometry>
        </mxCell>
        <mxCell id="gFJBynvqeBFDHYC_PQJG-27" value="&lt;font color=&quot;#000000&quot;&gt;&amp;lt;&amp;lt;include&amp;gt;&amp;gt;&lt;/font&gt;" style="text;html=1;resizable=0;points=[];align=center;verticalAlign=middle;labelBackgroundColor=#ffffff;fontSize=14;fontFamily=Comic Sans MS;fontColor=#808080;" parent="gFJBynvqeBFDHYC_PQJG-26" vertex="1" connectable="0">
          <mxGeometry x="0.2" relative="1" as="geometry">
            <mxPoint x="-16.29" y="-17" as="offset" />
          </mxGeometry>
        </mxCell>
      </root>
    </mxGraphModel>
  </diagram>
</mxfile>
